<?xml version="1.0" encoding="utf-8"?>
<!-- Generator: Adobe Illustrator 15.0.0, SVG Export Plug-In . SVG Version: 6.00 Build 0)  -->
<!DOCTYPE svg PUBLIC "-//W3C//DTD SVG 1.0//EN" "http://www.w3.org/TR/2001/REC-SVG-20010904/DTD/svg10.dtd">
<svg version="1.0" id="close_x5F_menu_1_" xmlns="http://www.w3.org/2000/svg" xmlns:xlink="http://www.w3.org/1999/xlink" x="0px"
	 y="0px" width="18px" height="18px" viewBox="0 0 18 18" enable-background="new 0 0 18 18" xml:space="preserve">
<g id="close_x5F_menu">
	<g>
		<path fill-rule="evenodd" clip-rule="evenodd" d="M9.761,8.991l8.077-8.076c0.212-0.213,0.212-0.557,0-0.77
			c-0.213-0.212-0.557-0.212-0.77,0L8.992,8.222L0.915,0.146c-0.212-0.212-0.557-0.212-0.77,0c-0.212,0.213-0.212,0.557,0,0.77
			l8.077,8.076l-8.077,8.077c-0.212,0.212-0.212,0.557,0,0.769c0.212,0.213,0.557,0.213,0.77,0l8.077-8.076l8.077,8.076
			c0.213,0.213,0.557,0.213,0.77,0c0.212-0.212,0.212-0.557,0-0.769L9.761,8.991z"/>
	</g>
</g>
</svg>
